<svg height="512" viewBox="0 0 59 60" width="512" xmlns="http://www.w3.org/2000/svg"><g id="Page-1" fill="none" fill-rule="evenodd"><g id="027---X-Ray" fill="rgb(0,0,0)" fill-rule="nonzero"><path id="Shape" d="m12 33c.0667239 3.8272001 1.4834204 7.5077775 4 10.392v10.887c-1.329.512-3.937 1.878-3.937 4.721 0 .5522847.4477153 1 1 1h27.937c1.7358019-.0299137 3.387507-.7529623 4.587-2.008 9.245-.255 13.413-6.518 13.413-10.992-.1181371-2.9291988-.8327118-5.8034905-2.1-8.447-.2040519-.4214702-.6732513-.6449027-1.129074-.5376645-.4558226.1072383-.7761896.5164267-.770926.9846645 0 7.188-5.6 9.222-8.94 9.794-.2671326.0468419-.5417543-.0186476-.759-.181-.2086962-.1510518-.3458196-.3815204-.379-.637-.1332775-1.0029912-.3279767-1.9968589-.583-2.976h2.661c1.6568542 0 3-1.3431458 3-3v-18c0-1.6568542-1.3431458-3-3-3h-18.071l-.392-2.748c.042-.027.089-.045.131-.073 1.6453763-1.1917732 2.5525531-3.153472 2.395-5.179 0-6.278-3.215-13-8-13-3.0139145.16573195-5.9954911.70588238-8.876 1.608-1.1249039.33009549-2.09752 1.0460146-2.747 2.022l-2.352 3.529c-.41437994.61925368-1.04477605 1.06174326-1.768 1.241l-5.8 1.449c-.86367318.2161979-1.4804422.9772737-1.513 1.867-.058 1.7.187 7.382 5.739 9.233.10225487.0338615.2092844.0510807.317.051 2.94895925.0341902 5.8741324.5326305 8.668 1.477l-.251.543c-1.6034727 3.0840349-2.4533556 6.504128-2.48 9.98zm30.938 15.226c.0989585.7983718.5234616 1.5203526 1.173 1.995.6570896.4846672 1.4829744.6813924 2.288.545 2.646-.454 8.2-2.076 10.016-7.747.3664907 1.2960852.5631347 2.6342727.585 3.981 0 3.629-3.813 9-12 9-.4583886-.000103-.8581532.311466-.97.756-.8313193.7596045-1.9047524 1.2003143-3.03 1.244h-1.556c.3599241-.6053465.5518554-1.2957468.556-2 0-.5522847-.4477153-1-1-1s-1 .4477153-1 1c0 1.1045695-.8954305 2-2 2h-13.279c.755-.915 2.279-2 5.279-2 .5047125-.0005564.929899-.377126.9914367-.8780733.0615377-.5009472-.259865-.9692298-.7494367-1.0919267-.032-.008-3.242-.859-3.242-5.03.0058649-1.39668.3554861-2.7704372 1.018-4h16.251c.2966942 1.0587245.5202217 2.1366011.669 3.226zm4.062-25.226c.5522847 0 1 .4477153 1 1v18c0 .5522847-.4477153 1-1 1h-22c-.5522847 0-1-.4477153-1-1v-18c0-.5522847.4477153-1 1-1zm-44.994-11.2 1.994-.5v1.7h-1.963c-.03348431-.3990665-.04383497-.7997369-.031-1.2zm14.582 9.959c-.205284-.5070189-.6082473-.9085379-1.116-1.112-2.9697225-1.0460329-6.08975644-1.6022893-9.238-1.647-1.84513701-.6337397-3.26622438-2.1260867-3.809-4h1.575c1.1045695 0 2-.8954305 2-2v-2.2l1.8-.451c1.20697914-.3005898 2.2580614-1.0413763 2.947-2.077l2.353-3.532c.3880616-.58425129.9693455-1.01331104 1.642-1.212 2.7005063-.84865509 5.4951653-1.36184327 8.321-1.528 3.14 0 6 5.243 6 11 .1336478 1.357988-.4405627 2.6892497-1.52 3.524-1.5149161.8400362-3.3378522.9141996-4.916.2-.3801213-.1551877-.628131-.5254222-.627-.936v-6.788c0-.55228475-.4477153-1-1-1s-1 .44771525-1 1v6.788c-.0071713 1.2324881.7441398 2.342569 1.891 2.794 1.5028906.599866 3.1467901.7540142 4.735.444l.282 1.974h-1.908c-1.6568542 0-3 1.3431458-3 3v18c.0019179 1.2242822.7475792 2.324568 1.884 2.78-.5806599 1.3312508-.88155 2.7676266-.884 4.22-.072387 1.9872986.6665537 3.9185799 2.047 5.35-2.0347963.4365929-3.7572554 1.7816883-4.674 3.65h-6.066c.74-1.442 2.915-2.024 2.939-2.031.4433785-.1125291.7538766-.5115644.754-.969v-12c.0002093-.2645618-.1044287-.5184257-.291-.706-2.3062392-2.5558587-3.6218663-5.8525525-3.709-9.294.0266411-3.186193.8152628-6.3197641 2.3-9.139l.255-.553c.2250606-.4912319.237004-1.0536567.033-1.554z"/><path id="Shape" d="m26.553 32.1c-.4942948.2468713-.6948713.8477051-.448 1.342.2468713.4942948.8477052.6948713 1.342.448 2.2244063-.9756115 4.1599452-2.5078557 5.62-4.449.454.486.937 1.019 1.436 1.6-.811 1.482-2.888 4.151-7.855 6.017-.4614898.1641998-.7361113.6385136-.6487497 1.1204912.0873615.4819776.5109876.8297295 1.0007497.8215088.1202031-.0002591.2393987-.021931.352-.064 4.825-1.813 7.268-4.335 8.493-6.236.651.84 1.293 1.73 1.881 2.66-1.6866343 1.7006053-3.760079 2.9673863-6.043 3.692-.5246705.1750743-.8080743.7423295-.633 1.267s.7423295.8080743 1.267.633c2.3993889-.7707809 4.5967091-2.0668992 6.432-3.794.5332635.9944642.9651055 2.0400646 1.289 3.121.1242837.4277751.5165369.7217611.962.721.0930706.0003713.1857025-.0127656.275-.039.2551775-.0726088.4710428-.2436447.6000781-.4754581.1290353-.2318135.1606634-.5054022.0879219-.7605419-.4946652-1.6274145-1.1903677-3.1867823-2.071-4.642v-.006c-2.2668737-3.6474829-5.0375732-6.9564995-8.23-9.829-.4177759-.3230444-1.0147309-.2655435-1.3631639.1313051s-.328217.9962257.0461639 1.3686949c.019.018.521.461 1.29 1.218-.526.94-1.835 2.515-5.082 4.134z"/><path id="Shape" d="m44.008 40.124c.0625244.5003376.4877709.8758577.992.876.0418034.0002923.0835749-.0023811.125-.008.5477838-.0686288.936322-.5681779.868-1.116-1.036-8.289-8.044-14.38-8.342-14.635-.4212323-.3340753-1.0312217-.2753078-1.3809275.133041-.3497059.4083488-.3139582 1.020119.0809275 1.384959.065.057 6.718 5.856 7.657 13.365z"/></g></g></svg>