<svg id="Capa_1" enable-background="new 0 0 512 512" height="512" viewBox="0 0 512 512" width="512" xmlns="http://www.w3.org/2000/svg"><g><path d="m507.55 37.37c-3.06-7.46-7.55-14.14-13.33-19.85-5.76-5.7-12.49-10.12-20.01-13.14-7.25-2.91-14.89-4.38-22.72-4.38h-.08c-7.82 0-15.47 1.47-22.72 4.39-7.51 3.01-14.25 7.43-20.01 13.14l-170.94 168.98c-12.9 12.75-22.18 28.7-26.85 46.13-3.75 14.01-11.21 26.83-21.58 37.08l-28.44 28.11-63.33 2.67c-2.44.1-4.75 1.09-6.52 2.78-20.04 19.28-37.21 40.77-51.03 63.89-11.35 18.98-20.5 39.14-27.21 59.93-5.07 15.69-8.71 31.55-10.83 47.13-1.69 12.46-1.95 21.49-1.95 25.76 0 1.33.03 2.19.04 2.41.11 2.88 1.46 5.56 3.69 7.37 1.81 1.46 3.98 2.23 6.28 2.23.57 0 8.734-1.427 12.224-2.197 27.522-6.076 53.891-17.407 78.536-33.763 17.1-11.35 33.47-25.18 48.65-41.11 12.08-12.67 23.5-26.75 33.93-41.84 14.59-21.14 22.96-38 25.88-44.27l29.88-29.55c10.39-10.26 23.38-17.65 37.59-21.37 17.35-4.54 33.28-13.53 46.07-25.99 3.95-3.85 4.03-10.2.18-14.14-1.9-1.95-4.44-3.02-7.16-3.02-2.62 0-5.1 1-6.98 2.84-10.31 10.05-23.17 17.3-37.17 20.96-17.6 4.61-33.71 13.77-46.59 26.5l-29.01 28.684-57.5 10.736c-2.87.54-5.36 2.3-6.82 4.82-23.34 40.31-54.83 65.35-77.13 79.25-9.855 6.146-18.743 10.65-25.526 13.751.838-2.947 1.749-5.964 2.746-9.051 13.71-42.4 37.39-80.39 70.38-112.92l63.38-2.67c2.49-.1 4.84-1.13 6.61-2.88l31.19-30.83c12.89-12.74 22.17-28.69 26.84-46.13 3.75-14 11.22-26.82 21.59-37.07l170.94-168.99c7.66-7.57 17.85-11.74 28.71-11.75 10.86.01 21.06 4.18 28.72 11.75 7.61 7.54 11.82 17.56 11.83 28.22-.01 10.66-4.22 20.68-11.84 28.22l-107.39 106.17c-3.93 3.88-3.96 10.22-.09 14.15 1.9 1.91 4.42 2.97 7.12 2.97 2.65 0 5.14-1.03 7.03-2.89l107.4-106.17c5.78-5.71 10.26-12.39 13.32-19.85 2.96-7.22 4.46-14.82 4.45-22.6.01-7.78-1.49-15.39-4.45-22.6zm-442.38 408.15c14.85-9.26 28.74-20.04 41.27-32.04 15.59-14.93 29.13-31.81 40.23-50.18l35.981-6.72c-1.198 2.119-2.51 4.383-3.951 6.79-10.18 17.01-21.79 33.03-34.53 47.63-36.16 41.49-77.8 67.97-123.75 78.71.452-6.169 1.346-14.136 3.053-23.48 8.07-2.954 23.445-9.344 41.697-20.71z"/><circle cx="347.798" cy="233.11" r="10"/></g></svg>