<svg height="512pt" viewBox="-141 0 512 512.00083" width="512pt" xmlns="http://www.w3.org/2000/svg"><path d="m212.761719 1.195312c-25.632813 16.390626-39.769531 42.785157-40.878907 76.332032-1 30.265625 8.734376 57.355468 11.738282 64.9375 3.71875 9.371094 5.484375 19.371094 5.277344 29.769531-4.265626 3.402344-7.003907 8.597656-7.003907 14.417969v306.792968c0 10.230469 8.445313 18.554688 18.824219 18.554688h10.617188c10.378906 0 18.824218-8.324219 18.824218-18.554688v-135.898437c0-4.140625-3.359375-7.5-7.5-7.5-4.144531 0-7.5 3.359375-7.5 7.5v135.898437c0 1.960938-1.71875 3.554688-3.824218 3.554688h-10.617188c-2.105469 0-3.820312-1.59375-3.820312-3.554688v-270.273437h18.261718v99.375c0 4.140625 3.355469 7.5 7.5 7.5 4.140625 0 7.5-3.359375 7.5-7.5 0-4.609375 0-131.1875 0-135.898437 0-5.273438-2.257812-10.035157-5.859375-13.414063v-165.71875c0-5.917969-6.554687-9.507813-11.539062-6.320313zm-3.460938 21.691407v145.207031h-5.410156c-.28125-10.816406-2.398437-21.261719-6.324219-31.160156-3.230468-8.148438-28.25-75.578125 11.734375-114.046875zm-12.402343 185.285156v-21.523437c0-2.023438 1.804687-3.554688 3.820312-3.554688h10.617188c2.03125 0 3.824218 1.542969 3.824218 3.554688v21.523437zm0 0"/><path d="m53.460938 12.15625c2.988281-10.175781-10.589844-16.804688-16.773438-8.175781l-24.339844 34c-9.710937 13.566406-13.910156 30.152343-11.824218 46.675781l50.289062 412.589844c1.023438 8.410156 8.1875 14.753906 16.660156 14.753906h12.242188c8.472656 0 15.632812-6.34375 16.660156-14.753906l33.449219-274.429688c.5-4.109375-2.425781-7.851562-6.539063-8.351562-4.105468-.496094-7.851562 2.425781-8.355468 6.535156l-22.242188 182.523438c-10.554688-10.597657-27.636719-10.597657-38.1875 0l-39.089844-320.714844c-2.773437-21.972656 8.441406-35.128906 14.453125-43.527344-2.847656 9.703125-6.460937 19.625-4.523437 34.941406l38.101562 301.679688c1.5 11.875 18.800782 11.90625 20.304688-.003906l38.097656-301.675782c1.929688-15.234375-1.640625-25.132812-4.519531-34.941406 5.890625 8.230469 17.246093 21.421875 14.449219 43.5625l-12.574219 103.15625c-.5 4.113281 2.425781 7.851562 6.539062 8.355469 4.101563.5 7.851563-2.429688 8.355469-6.539063l12.566406-103.128906c2.089844-16.550781-2.105468-33.140625-11.820312-46.707031l-24.339844-33.996094c-6.171875-8.625-19.761719-2.015625-16.773438 8.171875l11.574219 39.421875c4.128907 14.070313 4.578125-2.300781-31.707031 285.003906-36.285156-287.304687-35.835938-270.933593-31.707031-285.003906zm20.132812 398.421875c6.589844 0 11.953125 5.363281 11.953125 11.953125 0 6.59375-5.363281 11.957031-11.953125 11.957031-6.59375 0-11.957031-5.363281-11.957031-11.957031 0-6.589844 5.363281-11.953125 11.957031-11.953125zm13.96875 35-6.078125 49.851563c-.109375.894531-.871094 1.570312-1.769531 1.570312h-12.242188c-.902344 0-1.660156-.675781-1.769531-1.570312l-6.078125-49.851563c8.566406 5.210937 19.359375 5.21875 27.9375 0zm0 0"/></svg>