<?xml version="1.0"?>
<svg xmlns="http://www.w3.org/2000/svg" viewBox="0 0 64 64" width="512" height="512"><g id="outline"><path d="M59.307,48.3c-1.822-.492-3.907.264-5.307.963V43A13.021,13.021,0,0,0,43.677,30.28l.726-.363a3.857,3.857,0,0,0,2.583-4.081L46,19.917V15h3.1a1.9,1.9,0,0,0,1.65-.969,2.037,2.037,0,0,0,0-2.027,17.261,17.261,0,0,1-1.789-5.15,6,6,0,0,0-2.5-4.113,5.151,5.151,0,0,0-3.7-.631.993.993,0,0,0-.191.07L38.773,4H23.23L19.474,2.181a.977.977,0,0,0-.2-.071,5.179,5.179,0,0,0-3.716.635,6,6,0,0,0-2.5,4.109A17.193,17.193,0,0,1,11.268,12,2,2,0,0,0,13,15h3v4.917l-.992,5.959A3.848,3.848,0,0,0,17.6,29.917L21.553,31.9A1,1,0,0,0,22,32h2.7l-.142.534L22,32.985l-11.83-1.971a1.98,1.98,0,0,0-.462.034,1.836,1.836,0,0,0-.41.245l-7,7A1,1,0,0,0,2,39v4a2.672,2.672,0,0,0,1.943,2.317,6.83,6.83,0,0,0,2.558.49,4.525,4.525,0,0,0,3.206-1.1c1.867-1.866,1.874-3.452,1.5-4.5l.989-.989,9.333,4.666-.5,1.859a1,1,0,0,0,.259.965L26,51.414V56h-.916a3.057,3.057,0,0,0-2.934,2.046A3.006,3.006,0,0,0,25,62h7a1,1,0,0,0,.98-.8l2-10a.981.981,0,0,0-.01-.438l-.558-2.232,2.992,1a5.121,5.121,0,0,0-.369,3.749.953.953,0,0,0,.067.173L38.378,56H37.084a3.057,3.057,0,0,0-2.934,2.046A3.006,3.006,0,0,0,37,62H53a1,1,0,0,0,.9-1.447L52.217,57.2l1.2-1.2H58a4.345,4.345,0,0,0,3.733-1.9,3.61,3.61,0,0,0,.174-3.526A3.994,3.994,0,0,0,59.307,48.3ZM8.293,43.293a3.529,3.529,0,0,1-2.942.38A2.258,2.258,0,0,1,4,43V39.414l1.328-1.327L9.252,40.7C9.456,41.093,9.664,41.922,8.293,43.293Zm1.58-4.58-3.1-2.068,2.793-2.793,1.293,3.877ZM43.317,4.036a3.088,3.088,0,0,1,2.07.4A4.108,4.108,0,0,1,47,7.249,17.324,17.324,0,0,0,49.1,13H45.535L40.471,5.4ZM30,6h2V16H30Zm3.382,12-1,2H29.618l-1-2ZM29,22h4a1,1,0,0,0,.9-.553l1.38-2.76L36.3,19.7a13.646,13.646,0,0,1,2.72,4.529,1.373,1.373,0,0,1-.366.954A2.32,2.32,0,0,1,36.993,26c-4.618,0-5-1.419-5-3a1,1,0,0,0-2,0c0,1.581-.383,3-5,3a2.281,2.281,0,0,1-1.636-.788,1.312,1.312,0,0,1-.352-.944,13.189,13.189,0,0,1,2.68-4.557l1.038-1.029,1.382,2.765A1,1,0,0,0,29,22ZM13,13a19.285,19.285,0,0,0,2.014-5.749,4.128,4.128,0,0,1,1.594-2.8A2.989,2.989,0,0,1,18.226,4a3.208,3.208,0,0,1,.492.036L21.531,5.4,16.465,13Zm9.232,17s-3.852-1.924-3.885-1.937a1.862,1.862,0,0,1-1.365-1.9l1-6A.9.9,0,0,0,18,20V14.3L23.535,6H28V16H27a1,1,0,0,0-.7.291l0,0L24.272,18.3a15.267,15.267,0,0,0-3.2,5.442.963.963,0,0,0-.033.141,3.222,3.222,0,0,0,.792,2.628A4.267,4.267,0,0,0,24.993,28c2.222,0,4.668-.265,6-1.837,1.331,1.572,3.778,1.837,6,1.837a4.306,4.306,0,0,0,3.181-1.519,3.246,3.246,0,0,0,.8-2.643.889.889,0,0,0-.038-.154,15.637,15.637,0,0,0-3.23-5.392l-2-2,0,0A1,1,0,0,0,35,16H34V6h4.465L44,14.3V20a.9.9,0,0,0,.014.164l.994,5.96a1.867,1.867,0,0,1-1.359,1.939C43.616,28.076,39.764,30,39.764,30ZM15,38.382l-2.182-1.091L11.474,33.26,15,33.847Zm2-4.2,2.919.486L17,37.586Zm.688,5.545,4.8-4.8,1.5-.265-1.932,7.244ZM31.18,60H25a.99.99,0,0,1-.808-.41,1.024,1.024,0,0,1-.136-.94A1.061,1.061,0,0,1,25.084,58H30V56H28V51a1,1,0,0,0-.293-.707L23.115,45.7,26.768,32H40.249l-9.931,9.269a1,1,0,0,0-.247,1.1l1.976,4.938.928,3.715Zm2.168-14.821-1.165-2.915,10.8-10.076a10.827,10.827,0,0,1,2.1.606Zm4.422,2.36-2.965-.99L46.93,33.75a11.061,11.061,0,0,1,3.087,2.968ZM52,54.586l-1.707,1.707a1,1,0,0,0-.188,1.154L51.382,60H37a.99.99,0,0,1-.808-.41,1.024,1.024,0,0,1-.136-.94A1.061,1.061,0,0,1,37.084,58H45V56H40.614l-1.679-3.358a3.121,3.121,0,0,1,.857-3.04,2.78,2.78,0,0,1,2.825-.673L46.549,50.9l.894-1.79-4-2a.876.876,0,0,0-.131-.053,4.863,4.863,0,0,0-1.691-.247l9.4-8.309A10.921,10.921,0,0,1,52,43Zm8.047-1.558A2.4,2.4,0,0,1,58,54H54V51.547c1.123-.676,3.307-1.72,4.784-1.316a1.977,1.977,0,0,1,1.309,1.191A1.607,1.607,0,0,1,60.047,53.028Z"/><path d="M26.832,9.555l-1.664-1.11A5.455,5.455,0,0,1,20.989,11L21,13A7.447,7.447,0,0,0,26.832,9.555Z"/><rect x="23" y="13" width="2" height="2"/><path d="M35.829,8.445l-1.664,1.11A7.442,7.442,0,0,0,40,13V11A5.44,5.44,0,0,1,35.829,8.445Z"/><rect x="36" y="13" width="2" height="2"/></g></svg>
