<?xml version="1.0" encoding="iso-8859-1"?>
<!-- Generator: Adobe Illustrator 19.0.0, SVG Export Plug-In . SVG Version: 6.00 Build 0)  -->
<svg version="1.1" id="Capa_1" xmlns="http://www.w3.org/2000/svg" xmlns:xlink="http://www.w3.org/1999/xlink" x="0px" y="0px"
	 viewBox="0 0 512 512" style="enable-background:new 0 0 512 512;" xml:space="preserve">
<g fill="#ffffff">
	<g>
		<path fill="#ffffff" d="M504.485,40.078H391.388C389.064,17.083,376.202,0,360.203,0c-15.998,0-28.86,17.083-31.185,40.078h-41.835
			C284.86,17.083,271.998,0,256,0s-28.86,17.083-31.185,40.078H182.98C180.657,17.083,167.795,0,151.796,0
			c-15.998,0-28.86,17.083-31.185,40.078H63.624c-4.151,0-7.515,3.365-7.515,7.515v329.143H7.515C3.364,376.736,0,380.1,0,384.25
			c0,32.539,24.558,59.434,56.11,63.165v57.069c0,4.15,3.364,7.515,7.515,7.515h440.861c4.151,0,7.515-3.365,7.515-7.515V47.593
			C512,43.443,508.636,40.078,504.485,40.078z M360.203,15.029c6.713,0,14.104,10.307,16.041,25.049h-32.083
			C346.1,25.336,353.49,15.029,360.203,15.029z M256,15.029c6.713,0,14.104,10.307,16.041,25.049h-32.083
			C241.896,25.336,249.287,15.029,256,15.029z M151.796,15.029c6.713,0,14.104,10.307,16.041,25.049h-32.083
			C137.693,25.336,145.083,15.029,151.796,15.029z M15.609,391.765h313.473c1.94,16.409,10.148,30.925,22.157,41.08H63.624
			C39.384,432.845,19.232,415.006,15.609,391.765z M440.861,496.971H71.139v-49.096h321.127c19.469,0,36.915-8.799,48.595-22.62
			V496.971z M440.861,136.266h-56.11c-4.151,0-7.515,3.365-7.515,7.515s3.364,7.515,7.515,7.515h56.11V384.25
			c0,26.795-21.8,48.595-48.595,48.595c-26.795,0-48.595-21.8-48.595-48.595c0-4.15-3.364-7.515-7.515-7.515H71.139v-225.44h278.043
			c4.151,0,7.515-3.365,7.515-7.515s-3.364-7.515-7.515-7.515H71.139V55.108h49.473c2.324,22.995,15.187,40.078,31.185,40.078
			c4.151,0,7.515-3.365,7.515-7.515c0-4.15-3.364-7.515-7.515-7.515c-6.713,0-14.104-10.307-16.041-25.049h89.06
			c2.323,22.995,15.187,40.078,31.185,40.078c4.151,0,7.515-3.365,7.515-7.515c0-4.15-3.364-7.515-7.515-7.515
			c-6.713,0-14.104-10.307-16.041-25.049h89.06c2.324,22.995,15.187,40.078,31.185,40.078c4.151,0,7.515-3.365,7.515-7.515
			c0-4.15-3.364-7.515-7.515-7.515c-6.713,0-14.104-10.307-16.041-25.049h96.699V136.266z M468.916,496.971H455.89V384.25V55.108
			h13.025V496.971z M496.971,496.971h-13.025V55.108h13.025V496.971z"/>
	</g>
</g>
<g>
	<g>
		<path fill="#ffffff" d="M256,240.47c-33.977,0-61.62,27.643-61.62,61.62c0,31.056,23.035,49.597,61.62,49.597s61.62-18.541,61.62-49.597
			C317.62,268.113,289.977,240.47,256,240.47z M256,336.658c-17.4,0-46.591-4.491-46.591-34.568c0-25.69,20.9-46.591,46.591-46.591
			s46.591,20.901,46.591,46.591C302.591,332.167,273.4,336.658,256,336.658z"/>
	</g>
</g>
<g>
	<g>
		<path fill="#ffffff" d="M225.941,180.352c-15.359,0-25.55,18.996-25.55,31.562c0,14.089,11.461,25.55,25.55,25.55s25.55-11.461,25.55-25.55
			C251.491,199.348,241.3,180.352,225.941,180.352z M225.941,222.434c-5.801,0-10.521-4.719-10.521-10.521
			c0-7.107,5.998-16.532,10.521-16.532s10.521,9.425,10.521,16.532C236.462,217.715,231.743,222.434,225.941,222.434z"/>
	</g>
</g>
<g>
	<g>
		<path  fill="#ffffff" d="M286.059,180.352c-15.359,0-25.55,18.996-25.55,31.562c0,14.089,11.461,25.55,25.55,25.55s25.55-11.461,25.55-25.55
			C311.609,199.348,301.418,180.352,286.059,180.352z M286.059,222.434c-5.801,0-10.521-4.719-10.521-10.521
			c0-7.107,5.998-16.532,10.521-16.532s10.521,9.425,10.521,16.532C296.579,217.715,291.86,222.434,286.059,222.434z"/>
	</g>
</g>
<g>
	<g>
		<path fill="#ffffff" d="M334.153,216.423c-15.359,0-25.55,18.996-25.55,31.562c0,14.089,11.461,25.55,25.55,25.55s25.55-11.461,25.55-25.55
			C359.703,235.419,349.512,216.423,334.153,216.423z M334.153,258.505c-5.801,0-10.521-4.719-10.521-10.521
			c0-7.107,5.998-16.532,10.521-16.532s10.521,9.425,10.521,16.532C344.673,253.786,339.954,258.505,334.153,258.505z"/>
	</g>
</g>
<g>
	<g>
		<path fill="#ffffff" d="M177.847,216.423c-15.359,0-25.55,18.996-25.55,31.562c0,14.089,11.461,25.55,25.55,25.55s25.55-11.461,25.55-25.55
			C203.397,235.419,193.206,216.423,177.847,216.423z M177.847,258.505c-5.801,0-10.521-4.719-10.521-10.521
			c0-7.107,5.998-16.532,10.521-16.532s10.521,9.425,10.521,16.532C188.368,253.786,183.649,258.505,177.847,258.505z"/>
	</g>
</g>
<g>
</g>
<g>
</g>
<g>
</g>
<g>
</g>
<g>
</g>
<g>
</g>
<g>
</g>
<g>
</g>
<g>
</g>
<g>
</g>
<g>
</g>
<g>
</g>
<g>
</g>
<g>
</g>
<g>
</g>
</svg>
