<svg width="53" height="35" viewBox="0 0 53 35" fill="none" xmlns="http://www.w3.org/2000/svg">
<path d="M10.3996 9.008H4.15956L2.81556 12H1.58356L6.70356 0.799999H7.87156L12.9916 12H11.7436L10.3996 9.008ZM9.96756 8.048L7.27956 2.032L4.59156 8.048H9.96756ZM17.6123 3.52C18.6683 3.52 19.5056 3.82933 20.1243 4.448C20.7536 5.056 21.0683 5.94667 21.0683 7.12V12H19.9323V7.232C19.9323 6.35733 19.7136 5.69067 19.2763 5.232C18.839 4.77333 18.215 4.544 17.4043 4.544C16.4976 4.544 15.7776 4.816 15.2443 5.36C14.7216 5.89333 14.4603 6.63467 14.4603 7.584V12H13.3243V3.584H14.4123V5.136C14.7216 4.624 15.1483 4.22933 15.6923 3.952C16.247 3.664 16.887 3.52 17.6123 3.52ZM22.8724 3.584H24.0084V12H22.8724V3.584ZM23.4484 1.744C23.2138 1.744 23.0164 1.664 22.8564 1.504C22.6964 1.344 22.6164 1.152 22.6164 0.927999C22.6164 0.714666 22.6964 0.528 22.8564 0.367999C23.0164 0.207999 23.2138 0.127999 23.4484 0.127999C23.6831 0.127999 23.8804 0.207999 24.0404 0.367999C24.2004 0.517332 24.2804 0.698666 24.2804 0.912C24.2804 1.14667 24.2004 1.344 24.0404 1.504C23.8804 1.664 23.6831 1.744 23.4484 1.744ZM36.3853 3.52C37.4413 3.52 38.268 3.824 38.8653 4.432C39.4733 5.04 39.7773 5.936 39.7773 7.12V12H38.6413V7.232C38.6413 6.35733 38.428 5.69067 38.0013 5.232C37.5853 4.77333 36.9933 4.544 36.2253 4.544C35.3506 4.544 34.6626 4.816 34.1613 5.36C33.66 5.89333 33.4093 6.63467 33.4093 7.584V12H32.2733V7.232C32.2733 6.35733 32.06 5.69067 31.6333 5.232C31.2173 4.77333 30.62 4.544 29.8413 4.544C28.9773 4.544 28.2893 4.816 27.7773 5.36C27.276 5.89333 27.0253 6.63467 27.0253 7.584V12H25.8893V3.584H26.9773V5.12C27.276 4.608 27.692 4.21333 28.2253 3.936C28.7586 3.65867 29.372 3.52 30.0653 3.52C30.7693 3.52 31.3773 3.66933 31.8893 3.968C32.412 4.26667 32.8013 4.70933 33.0573 5.296C33.3666 4.74133 33.8093 4.30933 34.3853 4C34.972 3.68 35.6386 3.52 36.3853 3.52ZM44.5221 3.52C45.6207 3.52 46.4634 3.79733 47.0501 4.352C47.6367 4.896 47.9301 5.70667 47.9301 6.784V12H46.8421V10.688C46.5861 11.1253 46.2074 11.4667 45.7061 11.712C45.2154 11.9573 44.6287 12.08 43.9461 12.08C43.0074 12.08 42.2607 11.856 41.7061 11.408C41.1514 10.96 40.8741 10.368 40.8741 9.632C40.8741 8.91733 41.1301 8.34133 41.6421 7.904C42.1647 7.46667 42.9914 7.248 44.1221 7.248H46.7941V6.736C46.7941 6.01067 46.5914 5.46133 46.1861 5.088C45.7807 4.704 45.1887 4.512 44.4101 4.512C43.8767 4.512 43.3647 4.60267 42.8741 4.784C42.3834 4.95467 41.9621 5.19467 41.6101 5.504L41.0981 4.656C41.5247 4.29333 42.0367 4.016 42.6341 3.824C43.2314 3.62133 43.8607 3.52 44.5221 3.52ZM44.1221 11.184C44.7621 11.184 45.3114 11.04 45.7701 10.752C46.2287 10.4533 46.5701 10.0267 46.7941 9.472V8.096H44.1541C42.7141 8.096 41.9941 8.59733 41.9941 9.6C41.9941 10.0907 42.1807 10.48 42.5541 10.768C42.9274 11.0453 43.4501 11.184 44.1221 11.184ZM49.7356 0.127999H50.8716V12H49.7356V0.127999ZM23.7138 14.4L15.4258 34H8.92983L0.641828 14.4H7.75383L12.4298 25.852L17.2178 14.4H23.7138ZM39.3503 26.328C39.3503 26.4213 39.3223 26.916 39.2663 27.812H28.6263C28.8503 28.3907 29.2236 28.8387 29.7463 29.156C30.269 29.4547 30.9223 29.604 31.7063 29.604C32.3783 29.604 32.9383 29.52 33.3863 29.352C33.853 29.184 34.357 28.8947 34.8983 28.484L38.2023 31.816C36.709 33.4587 34.4783 34.28 31.5103 34.28C29.6623 34.28 28.0383 33.944 26.6383 33.272C25.2383 32.5813 24.1556 31.6293 23.3903 30.416C22.625 29.2027 22.2423 27.84 22.2423 26.328C22.2423 24.7973 22.6156 23.4347 23.3623 22.24C24.1276 21.0267 25.1636 20.084 26.4703 19.412C27.7956 18.74 29.2796 18.404 30.9223 18.404C32.4716 18.404 33.881 18.712 35.1503 19.328C36.4383 19.944 37.4556 20.8493 38.2023 22.044C38.9676 23.2387 39.3503 24.6667 39.3503 26.328ZM30.9783 22.716C30.325 22.716 29.7836 22.8933 29.3543 23.248C28.925 23.6027 28.645 24.1067 28.5143 24.76H33.4423C33.3116 24.1253 33.0316 23.6307 32.6023 23.276C32.173 22.9027 31.6316 22.716 30.9783 22.716ZM52.6313 33.468C51.6793 34.0093 50.3819 34.28 48.7393 34.28C46.5926 34.28 44.9406 33.7667 43.7833 32.74C42.6259 31.6947 42.0473 30.136 42.0473 28.064V24.144H39.9473V19.524H42.0473V15.24H48.3753V19.524H51.5113V24.144H48.3753V28.008C48.3753 28.4747 48.4966 28.8387 48.7393 29.1C48.9819 29.3613 49.2993 29.492 49.6913 29.492C50.2326 29.492 50.7086 29.352 51.1193 29.072L52.6313 33.468Z" fill="#F24C3F"/>
</svg>
