<svg height="512pt" viewBox="0 -1 512 512" width="512pt" xmlns="http://www.w3.org/2000/svg"><path d="m512 239.464844c0 45.101562-13.507812 89.058594-39.0625 127.113281-6.304688 9.390625-19.03125 11.890625-28.417969 5.582031-9.390625-6.304687-11.890625-19.027344-5.585937-28.417968 21.003906-31.277344 32.105468-67.335938 32.105468-104.277344 0-109.457032-96.464843-198.503906-215.039062-198.503906s-215.039062 89.046874-215.039062 198.503906c0 58.90625 28.421874 114.5625 77.980468 152.699218 5.035156 3.875 7.988282 9.871094 7.988282 16.230469v48.378907l50.363281-26.175782c4.652343-2.414062 10.054687-2.957031 15.09375-1.511718 20.546875 5.894531 41.953125 8.882812 63.613281 8.882812 42.066406 0 82.828125-11.253906 117.890625-32.546875 9.664063-5.871094 22.261719-2.792969 28.132813 6.875 5.871093 9.667969 2.796874 22.261719-6.871094 28.136719-41.46875 25.183594-89.585938 38.496094-139.148438 38.496094-22.6875 0-45.152344-2.792969-66.898437-8.304688l-73.210938 38.042969c-2.964843 1.542969-6.207031 2.308593-9.441406 2.308593-3.691406 0-7.375-.996093-10.632813-2.972656-6.113281-3.714844-9.847656-10.351562-9.847656-17.507812v-72.273438c-54.773437-45.699218-85.972656-110.300781-85.972656-178.757812 0-132.042969 114.839844-239.464844 256-239.464844s256 107.421875 256 239.464844zm-144.773438-63.792969-82.300781 56.9375-44.097656-44.136719c-3.933594-3.933594-9.300781-6.089844-14.859375-6-5.5625.101563-10.84375 2.457032-14.632812 6.535156l-91.171876 98.105469c-7.5 8.074219-7.269531 20.632813.523438 28.425781l1.023438 1.023438c3.964843 3.964844 9.207031 5.996094 14.484374 5.996094 4.164063 0 8.347657-1.261719 11.9375-3.839844l80.324219-57.664062 44.710938 44.214843c3.914062 3.871094 9.21875 6.003907 14.71875 5.914063 5.503906-.085938 10.738281-2.378906 14.527343-6.371094l92.335938-97.171875c7.652344-8.050781 7.488281-20.734375-.363281-28.589844l-1.023438-1.023437c-7-6.992188-17.996093-7.984375-26.136719-2.355469zm0 0"/></svg>